/* XPM */
static char * newstickr_xpm[] = {
"32 32 28 1",
" 	c None",
".	c #FFFFFF",
"+	c #000000",
"@	c #1B1B1B",
"#	c #D2D2D2",
"$	c #111111",
"%	c #CBCBCB",
"&	c #101010",
"*	c #CDCDCD",
"=	c #141414",
"-	c #D8D8D8",
";	c #3D3D3D",
">	c #202020",
",	c #E8E8E8",
"'	c #F3F3F3",
")	c #3A3A3A",
"!	c #353535",
"~	c #F6F6F6",
"{	c #F1F1F1",
"]	c #2C2C2C",
"^	c #555555",
"/	c #E2E2E2",
"(	c #191919",
"_	c #C9C9C9",
":	c #060606",
"<	c #999999",
"[	c #5A5A5A",
"}	c #212121",
"................................",
"................................",
"................................",
"................................",
"................................",
"................................",
"................................",
"................................",
"................................",
"................................",
"....++@#.....+++.+++++++++++....",
"....+++$%....+++.+++++++++++....",
"....++++&*...+++.....+++........",
"....+++++=-..+++.....+++........",
"....+++;++>,.+++.....+++........",
"....+++')++!~+++.....+++........",
"....+++.{]++^+++.....+++........",
"....+++../(+++++.....+++........",
"....+++..._:++++.....+++........",
"....+++....<++++.....+++........",
"....+++.....[+++.....+++........",
"....+++.....{}++.....+++........",
"................................",
"................................",
"................................",
"................................",
"................................",
"................................",
"................................",
"................................",
"................................",
"................................"};
